<svg width="21" height="21" viewBox="0 0 21 21" fill="none" xmlns="http://www.w3.org/2000/svg">
<path d="M4.43019 16.4595L4.36568 16.6165L4.48767 16.7344C6.10055 18.2932 8.2557 19.1661 10.4996 19.1696H10.5004C12.7443 19.1661 14.8995 18.2932 16.5123 16.7344L16.6343 16.6165L16.5698 16.4595C16.0754 15.257 15.2344 14.2285 14.1536 13.5046C13.0728 12.7808 11.8011 12.3944 10.5 12.3944C9.19893 12.3944 7.9272 12.7808 6.84643 13.5046C5.76565 14.2285 4.9246 15.257 4.43019 16.4595ZM17.5535 14.8415L17.7689 15.2095L17.9849 14.8419C18.7564 13.5287 19.1641 12.0339 19.166 10.5112V10.5109C19.166 8.21437 18.2529 6.01197 16.6277 4.38817C15.0025 2.76437 12.7983 1.85217 10.5 1.85217C8.20171 1.85217 5.9975 2.76437 4.3723 4.38817C2.74709 6.01197 1.83401 8.21437 1.83401 10.5109L1.83401 10.5112C1.83588 12.0339 2.24356 13.5287 3.01515 14.8419L3.23114 15.2095L3.44647 14.8415C4.35844 13.2829 5.76208 12.0706 7.43757 11.3944L7.76534 11.2621L7.53144 10.9971C7.02763 10.4263 6.69939 9.72248 6.58606 8.96999C6.47274 8.2175 6.57914 7.44832 6.8925 6.75473C7.20587 6.06114 7.71291 5.4726 8.3528 5.05975C8.99269 4.64689 9.73825 4.42728 10.5 4.42728C11.2618 4.42728 12.0073 4.64689 12.6472 5.05975C13.2871 5.4726 13.7941 6.06114 14.1075 6.75473C14.4209 7.44832 14.5273 8.2175 14.4139 8.96999C14.3006 9.72248 13.9724 10.4263 13.4686 10.9971L13.2347 11.2621L13.5624 11.3944C15.2379 12.0706 16.6416 13.2829 17.5535 14.8415ZM4.89424 1.92641C6.56058 0.836328 8.50823 0.253873 10.5 0.25C12.4918 0.253873 14.4394 0.836328 16.1058 1.92641C17.7722 3.01658 19.0854 4.56739 19.8854 6.38994C20.6853 8.21248 20.9375 10.2281 20.6113 12.1913C20.2851 14.1545 19.3946 15.9805 18.0481 17.447C17.0865 18.4884 15.9195 19.3195 14.6205 19.8879C13.3213 20.4565 11.9183 20.75 10.5 20.75C9.08167 20.75 7.67871 20.4565 6.37955 19.8879C5.08057 19.3195 3.91352 18.4884 2.9519 17.4471C1.60544 15.9805 0.714879 14.1545 0.388672 12.1913C0.0624602 10.2281 0.314689 8.21248 1.11465 6.38994C1.9146 4.56739 3.22778 3.01658 4.89424 1.92641ZM8.54278 7.10181C8.28409 7.48863 8.146 7.94343 8.146 8.40869C8.146 9.0326 8.39407 9.6309 8.83555 10.072C9.27703 10.5131 9.87575 10.7609 10.5 10.7609C10.9655 10.7609 11.4206 10.6229 11.8077 10.3645C12.1948 10.1061 12.4966 9.73873 12.6748 9.3089C12.853 8.87907 12.8996 8.40608 12.8088 7.94977C12.7179 7.49345 12.4937 7.07432 12.1645 6.74538C11.8352 6.41644 11.4158 6.19245 10.9592 6.10171C10.5026 6.01096 10.0293 6.05753 9.59924 6.23554C9.16912 6.41354 8.80147 6.715 8.54278 7.10181Z" fill="white" stroke="#232323" stroke-width="0.5"/>
</svg>
