<svg width="588" height="721" viewBox="0 0 588 721" fill="none" xmlns="http://www.w3.org/2000/svg">
<g style="mix-blend-mode:screen" filter="url(#filter0_d_41_74)">
<g style="mix-blend-mode:multiply">
<rect width="898" height="510" rx="20" transform="matrix(0.991228 0.132164 -0.316228 0.948683 196.276 0)" fill="url(#paint0_linear_41_74)" fill-opacity="0.7"/>
<rect x="0.3375" y="0.540424" width="897" height="509" rx="19.5" transform="matrix(0.991228 0.132164 -0.316228 0.948683 196.45 -0.0168725)" stroke="white" stroke-opacity="0.2"/>
</g>
<g style="mix-blend-mode:multiply">
<rect width="875.091" height="431.175" rx="7" transform="matrix(0.991228 0.132164 -0.316228 0.948683 202.317 53.0281)" fill="url(#paint1_linear_41_74)" fill-opacity="0.7"/>
<rect x="0.3375" y="0.540424" width="874.091" height="430.175" rx="6.5" transform="matrix(0.991228 0.132164 -0.316228 0.948683 202.491 53.0112)" stroke="white" stroke-opacity="0.2"/>
</g>
<circle cx="4.95833" cy="4.95833" r="4.95833" transform="matrix(0.991228 0.132164 -0.316228 0.948683 218.136 30)" fill="#FF5C46"/>
<circle cx="4.95833" cy="4.95833" r="4.95833" transform="matrix(0.991228 0.132164 -0.316228 0.948683 238.497 32.7148)" fill="#EAAD37"/>
<circle cx="4.95833" cy="4.95833" r="4.95833" transform="matrix(0.991228 0.132164 -0.316228 0.948683 258.858 35.4297)" fill="#46FFB1"/>
<g filter="url(#filter1_f_41_74)">
<circle cx="4.95833" cy="4.95833" r="4.95833" transform="matrix(0.991228 0.132164 -0.316228 0.948683 218.136 30)" fill="#FF5C46"/>
<circle cx="4.95833" cy="4.95833" r="4.95833" transform="matrix(0.991228 0.132164 -0.316228 0.948683 238.497 32.7148)" fill="#EAAD37"/>
<circle cx="4.95833" cy="4.95833" r="4.95833" transform="matrix(0.991228 0.132164 -0.316228 0.948683 258.858 35.4297)" fill="#46FFB1"/>
</g>
</g>
<defs>
<filter id="filter0_d_41_74" x="0.334961" y="2.45776" width="1167.18" height="717.596" filterUnits="userSpaceOnUse" color-interpolation-filters="sRGB">
<feFlood flood-opacity="0" result="BackgroundImageFix"/>
<feColorMatrix in="SourceAlpha" type="matrix" values="0 0 0 0 0 0 0 0 0 0 0 0 0 0 0 0 0 0 127 0" result="hardAlpha"/>
<feOffset dy="80"/>
<feGaussianBlur stdDeviation="20"/>
<feComposite in2="hardAlpha" operator="out"/>
<feColorMatrix type="matrix" values="0 0 0 0 0 0 0 0 0 0 0 0 0 0 0 0 0 0 0.25 0"/>
<feBlend mode="normal" in2="BackgroundImageFix" result="effect1_dropShadow_41_74"/>
<feBlend mode="normal" in="SourceGraphic" in2="effect1_dropShadow_41_74" result="shape"/>
</filter>
<filter id="filter1_f_41_74" x="212.322" y="26.6094" width="59.043" height="22.9294" filterUnits="userSpaceOnUse" color-interpolation-filters="sRGB">
<feFlood flood-opacity="0" result="BackgroundImageFix"/>
<feBlend mode="normal" in="SourceGraphic" in2="BackgroundImageFix" result="shape"/>
<feGaussianBlur stdDeviation="2" result="effect1_foregroundBlur_41_74"/>
</filter>
<linearGradient id="paint0_linear_41_74" x1="-51.7671" y1="-36.7936" x2="430.492" y2="525.863" gradientUnits="userSpaceOnUse">
<stop stop-color="#434343"/>
<stop offset="1"/>
</linearGradient>
<linearGradient id="paint1_linear_41_74" x1="-50.4464" y1="-31.1068" x2="344.667" y2="500.24" gradientUnits="userSpaceOnUse">
<stop stop-color="#434343"/>
<stop offset="1"/>
</linearGradient>
</defs>
</svg>
