<svg width="24" height="25" viewBox="0 0 24 25" fill="none" xmlns="http://www.w3.org/2000/svg">
<path fill-rule="evenodd" clip-rule="evenodd" d="M15.8837 4.92232C13.3176 4.49212 10.6832 4.49212 8.11713 4.92232C7.63421 5.00328 7.25066 5.3743 7.15439 5.85221C6.27854 10.2004 6.23075 14.6748 7.01353 19.0407L7.17538 19.9434L10.8077 16.4927C11.4761 15.8578 12.5248 15.8578 13.1932 16.4927L16.8255 19.9434L16.9873 19.0407C17.7701 14.6748 17.7223 10.2004 16.8465 5.85221C16.7502 5.3743 16.3666 5.00328 15.8837 4.92232ZM7.8717 3.45838C10.6003 3.00094 13.4006 3.00094 16.1292 3.45838C17.2169 3.64074 18.0834 4.47576 18.3016 5.5591C19.2143 10.0903 19.2641 14.753 18.4484 19.3027L18.2292 20.5251C18.0453 21.5512 16.7944 21.9613 16.0386 21.2433L12.1708 17.5689C12.0753 17.4782 11.9255 17.4782 11.83 17.5689L7.96222 21.2433C7.20647 21.9613 5.9556 21.5512 5.77163 20.5251L5.55246 19.3027C4.73673 14.753 4.78653 10.0903 5.69925 5.5591C5.91746 4.47576 6.78394 3.64074 7.8717 3.45838Z" fill="#454545"/>
</svg>
