<svg width="18" height="13" viewBox="0 0 18 13" fill="none" xmlns="http://www.w3.org/2000/svg">
<path d="M15.261 1.09788C17.2939 3.93098 18.2978 7.12658 17.9225 10.8055C17.9209 10.821 17.9124 10.8353 17.8989 10.8447C16.3594 11.9161 14.8679 12.5664 13.3973 12.9976C13.3859 13.0009 13.3736 13.0007 13.3623 12.9971C13.3509 12.9935 13.3411 12.9866 13.3341 12.9774C12.9943 12.5293 12.6856 12.0569 12.4152 11.5608C12.3997 11.5316 12.4138 11.4964 12.4458 11.4849C12.9361 11.3098 13.4023 11.1 13.8507 10.8515C13.886 10.8319 13.8883 10.7839 13.8556 10.7609C13.7605 10.6939 13.6662 10.6235 13.576 10.5532C13.5591 10.5401 13.5364 10.5376 13.5172 10.5463C10.606 11.8206 7.4168 11.8206 4.4711 10.5463C4.452 10.5382 4.4293 10.541 4.4129 10.5538C4.3229 10.6242 4.2284 10.6939 4.1341 10.7609C4.1015 10.7839 4.1042 10.8319 4.1397 10.8515C4.5881 11.0953 5.0543 11.3098 5.5439 11.4858C5.5756 11.4973 5.5907 11.5316 5.575 11.5608C5.3104 12.0575 5.0017 12.5299 4.6556 12.978C4.6406 12.9961 4.6158 13.0045 4.5924 12.9976C3.1288 12.5664 1.6373 11.9161 0.0978077 10.8447C0.0849777 10.8353 0.0757584 10.8204 0.0744084 10.8048C-0.239242 7.62258 0.399977 4.40058 2.7335 1.09728C2.7391 1.08858 2.7476 1.08168 2.7575 1.07768C3.9057 0.578182 5.1358 0.210782 6.4214 0.000882357C6.4448 -0.00251764 6.4682 0.00768197 6.4804 0.027282C6.6392 0.293882 6.8208 0.635782 6.9436 0.915182C8.2988 0.718982 9.6751 0.718982 11.0587 0.915182C11.1815 0.641782 11.3568 0.293882 11.515 0.027282C11.5206 0.017582 11.5293 0.00978234 11.5399 0.00508234C11.5505 0.000282338 11.5624 -0.00111764 11.5739 0.000882357C12.8602 0.211382 14.0903 0.578882 15.2376 1.07768C15.2477 1.08168 15.256 1.08858 15.261 1.09788ZM7.6326 7.14828C7.6468 6.20758 6.9232 5.42918 6.0148 5.42918C5.1139 5.42918 4.3973 6.20078 4.3973 7.14828C4.3973 8.09568 5.1281 8.86728 6.0148 8.86728C6.916 8.86728 7.6326 8.09568 7.6326 7.14828ZM13.6135 7.14828C13.6277 6.20758 12.9041 5.42918 11.996 5.42918C11.0949 5.42918 10.3783 6.20078 10.3783 7.14828C10.3783 8.09568 11.1091 8.86728 11.996 8.86728C12.9041 8.86728 13.6135 8.09568 13.6135 7.14828Z" fill="white"/>
</svg>
