<svg width="24" height="25" viewBox="0 0 24 25" fill="none" xmlns="http://www.w3.org/2000/svg">
<path fill-rule="evenodd" clip-rule="evenodd" d="M11.9997 5.40045C8.03732 5.40045 4.8252 8.61257 4.8252 12.5749C4.8252 16.5373 8.03732 19.7494 11.9997 19.7494C15.962 19.7494 19.1742 16.5373 19.1742 12.5749C19.1742 8.61257 15.962 5.40045 11.9997 5.40045ZM3.34082 12.5749C3.34082 7.79278 7.21752 3.91608 11.9997 3.91608C16.7818 3.91608 20.6585 7.79278 20.6585 12.5749C20.6585 17.3571 16.7818 21.2338 11.9997 21.2338C7.21752 21.2338 3.34082 17.3571 3.34082 12.5749Z" fill="#454545"/>
<path fill-rule="evenodd" clip-rule="evenodd" d="M10.8614 9.91171C9.9376 10.6718 9.32041 11.7408 9.12411 12.9209L8.69074 15.5263C8.46569 16.8792 10.0389 17.7875 11.0981 16.9161L13.1377 15.2381C14.0616 14.4781 14.6787 13.4091 14.875 12.229L15.3084 9.62356C15.5335 8.27059 13.9603 7.36231 12.9011 8.2337L10.8614 9.91171ZM11.9997 11.0906C11.1799 11.0906 10.5153 11.7551 10.5153 12.5749C10.5153 13.3947 11.1799 14.0593 11.9997 14.0593C12.8195 14.0593 13.484 13.3947 13.484 12.5749C13.484 11.7551 12.8195 11.0906 11.9997 11.0906Z" fill="#454545"/>
</svg>
