<svg width="16" height="16" viewBox="0 0 16 16" fill="none" xmlns="http://www.w3.org/2000/svg">
<path fill-rule="evenodd" clip-rule="evenodd" d="M4.45845 15.9024C5.64067 15.9743 6.82147 16.0025 8 15.9999C9.1784 16.0025 10.3593 15.9743 11.5416 15.9024C12.5372 15.8419 13.4817 15.5121 14.2692 14.8699C15.0277 14.2513 15.5036 13.4228 15.7404 12.4947C15.9593 11.6373 15.9711 10.7755 15.9817 9.99693L15.982 9.9816C15.9909 9.3232 15.9984 8.66266 16 8.00146V8V7.99853C15.9984 7.33733 15.9909 6.6768 15.982 6.0184L15.9817 6.00306C15.9711 5.22454 15.9592 4.3627 15.7404 3.50525C15.5036 2.57713 15.0277 1.74866 14.2692 1.13013C13.4817 0.487916 12.5372 0.158182 11.5416 0.0976488C10.3593 0.0257555 9.1784 -0.00257733 8 0.000182671C6.82147 -0.00257733 5.64067 0.0257555 4.45845 0.0976488C3.46284 0.158182 2.51829 0.487916 1.73073 1.13013C0.9722 1.74866 0.496347 2.57714 0.259507 3.50524C0.0406669 4.36284 0.0288933 5.22481 0.0182667 6.00333L0.0180664 6.0184C0.00905307 6.6768 0.00154667 7.33733 0 7.99853V8V8.00146C0.00154667 8.66266 0.00905307 9.3232 0.0180664 9.9816L0.0182667 9.99666C0.0288933 10.7752 0.0406669 11.6372 0.259507 12.4948C0.496347 13.4228 0.9722 14.2513 1.73073 14.8699C2.51829 15.5121 3.46284 15.8419 4.45845 15.9024ZM7.99853 14.7499C6.84133 14.7525 5.68667 14.7248 4.53433 14.6547C3.76939 14.6081 3.08275 14.3595 2.52075 13.9012C1.9986 13.4753 1.65131 12.8932 1.47075 12.1857C1.29299 11.4891 1.27899 10.7689 1.26799 9.96453C1.25901 9.30813 1.25159 8.6536 1.25005 8C1.25159 7.3464 1.25901 6.69186 1.26799 6.03546C1.27899 5.23105 1.29299 4.51094 1.47075 3.8143C1.65131 3.10677 1.9986 2.52464 2.52075 2.09886C3.08273 1.64058 3.76939 1.39186 4.53433 1.34534C5.68667 1.27526 6.84133 1.24745 7.99853 1.25018H8H8.00147C9.15853 1.24745 10.3133 1.27526 11.4656 1.34534C12.2307 1.39186 12.9172 1.64057 13.4792 2.09885C14.0013 2.52462 14.3487 3.10677 14.5292 3.81429C14.7069 4.51093 14.7209 5.23104 14.732 6.03546C14.7409 6.69186 14.7484 7.34626 14.75 8C14.7484 8.65373 14.7409 9.30813 14.732 9.96453C14.7209 10.7689 14.7069 11.4891 14.5292 12.1857C14.3487 12.8932 14.0013 13.4753 13.4792 13.9012C12.9172 14.3595 12.2307 14.6081 11.4656 14.6547C10.3133 14.7248 9.15853 14.7525 8.00147 14.7499H8H7.99853Z" fill="white"/>
<path fill-rule="evenodd" clip-rule="evenodd" d="M4.11426 8.00048C4.11426 10.1465 5.854 11.8862 8 11.8862C10.146 11.8862 11.8857 10.1465 11.8857 8.00048C11.8857 5.85448 10.146 4.11475 8 4.11475C5.854 4.11475 4.11426 5.85448 4.11426 8.00048ZM8 10.6427C6.54067 10.6427 5.35774 9.45981 5.35774 8.00048C5.35774 6.54115 6.54067 5.35821 8 5.35821C9.45934 5.35821 10.6423 6.54115 10.6423 8.00048C10.6423 9.45981 9.45934 10.6427 8 10.6427Z" fill="white"/>
<path d="M13.2572 3.65696C13.2572 4.16189 12.8479 4.57125 12.343 4.57125C11.838 4.57125 11.4287 4.16189 11.4287 3.65696C11.4287 3.15204 11.838 2.74268 12.343 2.74268C12.8479 2.74268 13.2572 3.15204 13.2572 3.65696Z" fill="white"/>
</svg>
