<svg width="24" height="25" viewBox="0 0 24 25" fill="none" xmlns="http://www.w3.org/2000/svg">
<path d="M9.09822 3.99439C7.74893 3.84359 6.35457 3.84359 5.00528 3.99439C4.13724 4.09141 3.43532 4.77496 3.33296 5.65019C3.17157 7.03008 3.17157 8.42408 3.33296 9.80397C3.43532 10.6792 4.13724 11.3628 5.00528 11.4598C6.35457 11.6106 7.74893 11.6106 9.09822 11.4598C9.96627 11.3628 10.6682 10.6792 10.7705 9.80397C10.9319 8.42408 10.9319 7.03008 10.7705 5.65019C10.6682 4.77496 9.96627 4.09141 9.09822 3.99439Z" fill="white"/>
<path d="M9.09822 13.8902C7.74893 13.7394 6.35457 13.7394 5.00528 13.8902C4.13724 13.9872 3.43532 14.6708 3.33296 15.546C3.17157 16.9259 3.17157 18.3199 3.33296 19.6998C3.43532 20.575 4.13724 21.2586 5.00528 21.3556C6.35457 21.5064 7.74893 21.5064 9.09822 21.3556C9.96627 21.2586 10.6682 20.575 10.7705 19.6998C10.9319 18.3199 10.9319 16.9259 10.7705 15.546C10.6682 14.6708 9.96627 13.9872 9.09822 13.8902Z" fill="white"/>
<path d="M18.9941 3.99439C17.6448 3.84359 16.2504 3.84359 14.9011 3.99439C14.0331 4.09141 13.3312 4.77496 13.2288 5.65019C13.0674 7.03008 13.0674 8.42408 13.2288 9.80397C13.3312 10.6792 14.0331 11.3628 14.9011 11.4598C16.2504 11.6106 17.6448 11.6106 18.9941 11.4598C19.8621 11.3628 20.564 10.6792 20.6664 9.80397C20.8278 8.42408 20.8278 7.03008 20.6664 5.65019C20.564 4.77496 19.8621 4.09141 18.9941 3.99439Z" fill="white"/>
<path d="M18.9941 13.8902C17.6448 13.7394 16.2504 13.7394 14.9011 13.8902C14.0331 13.9872 13.3312 14.6708 13.2288 15.546C13.0674 16.9259 13.0674 18.3199 13.2288 19.6998C13.3312 20.575 14.0331 21.2586 14.9011 21.3556C16.2504 21.5064 17.6448 21.5064 18.9941 21.3556C19.8621 21.2586 20.564 20.575 20.6664 19.6998C20.8278 18.3199 20.8278 16.9259 20.6664 15.546C20.564 14.6708 19.8621 13.9872 18.9941 13.8902Z" fill="white"/>
</svg>
