<svg width="24" height="24" viewBox="0 0 24 24" fill="none" xmlns="http://www.w3.org/2000/svg">
<path fill-rule="evenodd" clip-rule="evenodd" d="M12.9899 2.99373C12.9899 2.4472 12.5468 2.00415 12.0003 2.00415C11.4538 2.00415 11.0107 2.4472 11.0107 2.99373V3.73592H10.4591C8.25721 3.73592 6.43479 5.44791 6.29734 7.64551L6.07864 11.1422C5.99526 12.4753 5.54768 13.7601 4.78465 14.8564C4.09523 15.8471 4.70899 17.2152 5.9073 17.359L9.27894 17.7636V18.8271C9.27894 20.33 10.4973 21.5484 12.0003 21.5484C13.5033 21.5484 14.7216 20.33 14.7216 18.8271V17.7636L18.0933 17.359C19.2916 17.2152 19.9053 15.8471 19.2159 14.8564C18.4529 13.7601 18.0053 12.4753 17.9219 11.1422L17.7032 7.64551C17.5658 5.44791 15.7434 3.73592 13.5415 3.73592H12.9899V2.99373ZM10.4591 5.2203C9.04102 5.2203 7.86734 6.32286 7.77882 7.73817L7.56012 11.2348C7.45978 12.8391 6.9212 14.385 6.00301 15.7044C5.95318 15.776 5.99754 15.8748 6.08416 15.8852L9.78288 16.3291C11.2559 16.5058 12.7447 16.5058 14.2177 16.3291L17.9164 15.8852C18.003 15.8749 18.0474 15.776 17.9976 15.7044C17.0794 14.385 16.5408 12.8391 16.4405 11.2348L16.2218 7.73817C16.1332 6.32286 14.9596 5.2203 13.5415 5.2203H10.4591ZM12.0003 20.064C11.3171 20.064 10.7633 19.5102 10.7633 18.8271V18.0849H13.2373V18.8271C13.2373 19.5102 12.6835 20.064 12.0003 20.064Z" fill="#454545"/>
</svg>
