<svg width="24" height="25" viewBox="0 0 24 25" fill="none" xmlns="http://www.w3.org/2000/svg">
<path fill-rule="evenodd" clip-rule="evenodd" d="M19.1902 10.8245C20.1718 11.584 20.1718 13.0659 19.1902 13.8254C16.2239 16.1206 12.9115 17.9297 9.37721 19.185L8.73153 19.4143C7.49626 19.853 6.19149 19.0173 6.02426 17.7421C5.55702 14.1794 5.55702 10.4705 6.02426 6.90777C6.19149 5.63265 7.49627 4.79689 8.73154 5.23561L9.37721 5.46493C12.9115 6.7202 16.2239 8.52931 19.1902 10.8245ZM18.2818 12.6514C18.4954 12.4862 18.4954 12.1638 18.2818 11.9985C15.4399 9.79955 12.2665 8.06632 8.88042 6.8637L8.23474 6.63438C7.91318 6.52017 7.54363 6.73784 7.49603 7.10079C7.04559 10.5354 7.04559 14.1145 7.49603 17.5491C7.54363 17.9121 7.91318 18.1297 8.23474 18.0155L8.88042 17.7862C12.2665 16.5836 15.4399 14.8504 18.2818 12.6514Z" fill="#454545"/>
</svg>
