<svg width="24" height="25" viewBox="0 0 24 25" fill="none" xmlns="http://www.w3.org/2000/svg">
<path fill-rule="evenodd" clip-rule="evenodd" d="M11.9999 3.49708L9.81019 5.76273C9.57712 6.00388 9.25612 6.14006 8.92074 6.14006H5.81505V9.24575C5.81505 9.58113 5.67887 9.90213 5.43772 10.1352L3.17207 12.325L5.43772 14.5147C5.67887 14.7478 5.81505 15.0688 5.81505 15.4042V18.5098H8.92074C9.25612 18.5098 9.57712 18.646 9.81019 18.8872L11.9999 21.1528L14.1897 18.8872C14.4228 18.646 14.7438 18.5098 15.0791 18.5098H18.1848V15.4041C18.1848 15.0688 18.321 14.7478 18.5622 14.5147L20.8278 12.325L18.5622 10.1352C18.321 9.90214 18.1848 9.58114 18.1848 9.24576V6.14006H15.0791C14.7438 6.14006 14.4228 6.00388 14.1897 5.76273L11.9999 3.49708ZM11.1105 2.28144C11.5967 1.77834 12.4031 1.77834 12.8894 2.28144L15.1841 4.65568H18.4322C19.1154 4.65568 19.6692 5.2095 19.6692 5.89266V9.14081L22.0435 11.4355C22.5466 11.9218 22.5466 12.7282 22.0435 13.2144L19.6692 15.5091V18.7572C19.6692 19.4404 19.1154 19.9942 18.4322 19.9942H15.1841L12.8894 22.3685C12.4031 22.8716 11.5967 22.8716 11.1105 22.3685L8.81579 19.9942H5.56765C4.88449 19.9942 4.33067 19.4404 4.33067 18.7572V15.5091L1.95643 13.2144C1.45333 12.7282 1.45332 11.9218 1.95643 11.4355L4.33067 9.1408V5.89266C4.33067 5.2095 4.88449 4.65568 5.56765 4.65568H8.81579L11.1105 2.28144Z" fill="#454545"/>
<path fill-rule="evenodd" clip-rule="evenodd" d="M7.29942 12.325C7.29942 9.72893 9.40392 7.62443 11.9999 7.62443C14.596 7.62443 16.7005 9.72893 16.7005 12.325C16.7005 14.921 14.596 17.0255 11.9999 17.0255C9.40392 17.0255 7.29942 14.921 7.29942 12.325ZM11.9999 9.10881C10.2237 9.10881 8.7838 10.5487 8.7838 12.325C8.7838 14.1012 10.2237 15.5411 11.9999 15.5411C13.7762 15.5411 15.2161 14.1012 15.2161 12.325C15.2161 10.5487 13.7762 9.10881 11.9999 9.10881Z" fill="#454545"/>
</svg>
