<svg width="14" height="24" viewBox="0 0 14 24" fill="none" xmlns="http://www.w3.org/2000/svg">
<path d="M4.62385 23.943C4.93992 24.0787 5.30742 23.9654 5.49203 23.6725L13.8919 10.2663C14.028 10.0493 14.0362 9.7753 13.9131 9.55148C13.7901 9.32694 13.5549 9.18754 13.2999 9.18754H7.69383L9.77878 0.876175C9.86287 0.54041 9.69264 0.193628 9.37615 0.0569877C9.06171 -0.0789499 8.69188 0.0350033 8.50797 0.327503L0.108065 13.7338C-0.0279669 13.9507 -0.0361803 14.2247 0.0868783 14.4486C0.209937 14.6731 0.445087 14.8125 0.700071 14.8125H6.30617L4.22122 23.1239C4.13713 23.4597 4.30732 23.8064 4.62385 23.943Z" fill="#FFBD3D"/>
</svg>
